<svg width="41" height="40" viewBox="0 0 41 40" fill="none" xmlns="http://www.w3.org/2000/svg">
<rect x="0.942383" width="40" height="40" rx="20" fill="#2D2D2D"/>
<path d="M20.9424 11.8072C23.593 11.8072 23.9544 11.8072 25.0388 11.8072C26.0026 11.8072 26.4846 12.0482 26.846 12.1687C27.3279 12.4096 27.6894 12.5301 28.0508 12.8916C28.4123 13.253 28.6532 13.6145 28.7737 14.0964C28.8942 14.4578 29.0147 14.9398 29.1352 15.9036C29.1352 16.988 29.1352 17.2289 29.1352 20C29.1352 22.7711 29.1352 23.0121 29.1352 24.0964C29.1352 25.0602 28.8942 25.5422 28.7737 25.9036C28.5327 26.3855 28.4123 26.747 28.0508 27.1084C27.6894 27.4699 27.3279 27.7108 26.846 27.8313C26.4846 27.9518 26.0026 28.0723 25.0388 28.1928C23.9544 28.1928 23.7135 28.1928 20.9424 28.1928C18.1713 28.1928 17.9303 28.1928 16.846 28.1928C15.8821 28.1928 15.4002 27.9518 15.0388 27.8313C14.5568 27.5904 14.1954 27.4699 13.834 27.1084C13.4725 26.747 13.2315 26.3855 13.1111 25.9036C12.9906 25.5422 12.8701 25.0602 12.7496 24.0964C12.7496 23.0121 12.7496 22.7711 12.7496 20C12.7496 17.2289 12.7496 16.988 12.7496 15.9036C12.7496 14.9398 12.9906 14.4578 13.1111 14.0964C13.352 13.6145 13.4725 13.253 13.834 12.8916C14.1954 12.5301 14.5568 12.2892 15.0388 12.1687C15.4002 12.0482 15.8821 11.9277 16.846 11.8072C17.9303 11.8072 18.2918 11.8072 20.9424 11.8072ZM20.9424 10C18.1713 10 17.9303 10 16.846 10C15.7617 10 15.0388 10.241 14.4364 10.4819C13.834 10.7229 13.2315 11.0843 12.6291 11.6867C12.0267 12.2892 11.7858 12.7711 11.4243 13.494C11.1833 14.0964 11.0629 14.8193 10.9424 15.9036C10.9424 16.988 10.9424 17.3494 10.9424 20C10.9424 22.7711 10.9424 23.0121 10.9424 24.0964C10.9424 25.1807 11.1833 25.9036 11.4243 26.506C11.6653 27.1084 12.0267 27.7108 12.6291 28.3133C13.2315 28.9157 13.7135 29.1566 14.4364 29.5181C15.0388 29.759 15.7617 29.8795 16.846 30C17.9303 30 18.2918 30 20.9424 30C23.593 30 23.9544 30 25.0388 30C26.1231 30 26.846 29.759 27.4484 29.5181C28.0508 29.2771 28.6532 28.9157 29.2556 28.3133C29.858 27.7108 30.099 27.2289 30.4605 26.506C30.7014 25.9036 30.8219 25.1807 30.9424 24.0964C30.9424 23.0121 30.9424 22.6506 30.9424 20C30.9424 17.3494 30.9424 16.988 30.9424 15.9036C30.9424 14.8193 30.7014 14.0964 30.4605 13.494C30.2195 12.8916 29.858 12.2892 29.2556 11.6867C28.6532 11.0843 28.1713 10.8434 27.4484 10.4819C26.846 10.241 26.1231 10.1205 25.0388 10C23.9544 10 23.7135 10 20.9424 10Z" fill="white"/>
<path d="M20.9424 14.8193C18.0508 14.8193 15.7617 17.1084 15.7617 20C15.7617 22.8916 18.0508 25.1807 20.9424 25.1807C23.834 25.1807 26.1231 22.8916 26.1231 20C26.1231 17.1084 23.834 14.8193 20.9424 14.8193ZM20.9424 23.3735C19.1352 23.3735 17.5689 21.9277 17.5689 20C17.5689 18.1928 19.0147 16.6265 20.9424 16.6265C22.7496 16.6265 24.3159 18.0723 24.3159 20C24.3159 21.8072 22.7496 23.3735 20.9424 23.3735Z" fill="white"/>
<path d="M26.2436 15.9036C26.909 15.9036 27.4484 15.3642 27.4484 14.6988C27.4484 14.0334 26.909 13.494 26.2436 13.494C25.5782 13.494 25.0388 14.0334 25.0388 14.6988C25.0388 15.3642 25.5782 15.9036 26.2436 15.9036Z" fill="white"/>
</svg>
