<svg width="41" height="40" viewBox="0 0 41 40" fill="none" xmlns="http://www.w3.org/2000/svg">
<path d="M40.0339 20C40.0339 8.95431 31.0796 0 20.0339 0C8.98824 0 0.0339355 8.95431 0.0339355 20C0.0339355 31.0457 8.98824 40 20.0339 40C31.0796 40 40.0339 31.0457 40.0339 20Z" fill="#2D2D2D"/>
<path d="M15.0366 11.7852L11.4652 15.3566V28.2137H15.7509V31.7852L19.3224 28.2137H22.1795L28.6081 21.7852V11.7852H15.0366ZM27.1795 21.0709L24.3224 23.928H21.4652L18.9652 26.428V23.928H15.7509V13.2137H27.1795V21.0709Z" fill="white"/>
<path d="M25.0366 15.7137H23.6081V19.9994H25.0366V15.7137Z" fill="white"/>
<path d="M21.1081 15.7137H19.6795V19.9994H21.1081V15.7137Z" fill="white"/>
</svg>
